<?xml version="1.0" encoding="UTF-8" standalone="no"?>
<!-- Created with Inkscape (http://www.inkscape.org/) -->

<svg
   width="297mm"
   height="210mm"
   viewBox="0 0 297 210"
   version="1.1"
   id="svg1"
   inkscape:version="1.3.2 (091e20e, 2023-11-25, custom)"
   sodipodi:docname="map03.svg"
   xmlns:inkscape="http://www.inkscape.org/namespaces/inkscape"
   xmlns:sodipodi="http://sodipodi.sourceforge.net/DTD/sodipodi-0.dtd"
   xmlns="http://www.w3.org/2000/svg"
   xmlns:svg="http://www.w3.org/2000/svg">
  <sodipodi:namedview
     id="namedview1"
     pagecolor="#ffffff"
     bordercolor="#000000"
     borderopacity="0.25"
     inkscape:showpageshadow="2"
     inkscape:pageopacity="0.0"
     inkscape:pagecheckerboard="0"
     inkscape:deskcolor="#d1d1d1"
     inkscape:document-units="mm"
     showgrid="true"
     inkscape:zoom="4.8302894"
     inkscape:cx="977.06361"
     inkscape:cy="573.98217"
     inkscape:window-width="3840"
     inkscape:window-height="2131"
     inkscape:window-x="-9"
     inkscape:window-y="-9"
     inkscape:window-maximized="1"
     inkscape:current-layer="layer1">
    <inkscape:grid
       id="grid1"
       units="px"
       originx="0"
       originy="0"
       spacingx="2.6458334"
       spacingy="2.6458333"
       empcolor="#0099e5"
       empopacity="0.30196078"
       color="#0099e5"
       opacity="0"
       empspacing="1"
       dotted="false"
       gridanglex="30"
       gridanglez="30"
       visible="true" />
  </sodipodi:namedview>
  <defs
     id="defs1" />
  <g
     inkscape:label="Layer 1"
     inkscape:groupmode="layer"
     id="layer1">
    <path
       style="fill:none;stroke:#000000;stroke-width:0.499999;stroke-opacity:1"
       d="M 2.6458333,201.08333 H 293.68751 l 0,-23.8125 h -23.8125 l 21.16667,21.16667 h -23.8125 l -39.68751,-13.22917 -26.45833,7.9375 -23.8125,2.64583 h -13.22917 l -0.0575,2.64584 h -5.29166 v -2.64583 l -7.86855,-1e-5 -0.0114,-2.64583 h -2.64583 l -2.64583,2.64584 h -7.9375 l -2.64584,2.64583 -2.58891,-2.64584 h -13.28609 v -2.64583 h -2.64583 v -2.64584 l -5.29167,1e-5 v -2.64583 h -2.64583 v -2.64583 l -5.29167,-1e-5 v -2.64583 h -2.64583 v -2.64584 h -5.291667 v -2.64583 H 92.60417 V 174.625 h -5.291667 v -2.64584 l -34.395835,1e-5 -7.9375,-2.64584 -7.9375,-2.64583 -5.291667,-5.29167 H 21.166667 L 13.229167,158.75 5.2916668,153.45833 H 2.6458334 l -10e-8,47.625"
       id="path1"
       sodipodi:nodetypes="ccccccccccccccccccccccccccccccccccccccccccccccc" />
  </g>
</svg>
